<svg class="lds-gear" width="74px"  height="74px"  xmlns="http://www.w3.org/2000/svg" xmlns:xlink="http://www.w3.org/1999/xlink" viewBox="0 0 100 100" preserveAspectRatio="xMidYMid" style="background: none;"><g transform="translate(50 50)">
<g transform="rotate(16.8)">
<animateTransform attributeName="transform" type="rotate" values="0;360" keyTimes="0;1" dur="2.5s" repeatCount="indefinite"></animateTransform><path d="M37.43995192304605 -6.5 L49.43995192304605 -6.5 L49.43995192304605 6.5 L37.43995192304605 6.5 A38 38 0 0 1 35.67394948182593 13.090810836924174 L35.67394948182593 13.090810836924174 L46.06625432723919 19.090810836924174 L39.56625432723919 30.34914108612188 L29.17394948182593 24.34914108612188 A38 38 0 0 1 24.34914108612188 29.17394948182593 L24.34914108612188 29.17394948182593 L30.349141086121882 39.56625432723919 L19.090810836924184 46.06625432723919 L13.090810836924183 35.67394948182593 A38 38 0 0 1 6.5 37.43995192304605 L6.5 37.43995192304605 L6.500000000000001 49.43995192304605 L-6.499999999999995 49.43995192304606 L-6.499999999999996 37.43995192304606 A38 38 0 0 1 -13.09081083692417 35.67394948182593 L-13.09081083692417 35.67394948182593 L-19.09081083692417 46.06625432723919 L-30.34914108612187 39.5662543272392 L-24.349141086121872 29.173949481825936 A38 38 0 0 1 -29.17394948182592 24.34914108612189 L-29.17394948182592 24.34914108612189 L-39.566254327239186 30.349141086121893 L-46.066254327239186 19.0908108369242 L-35.67394948182592 13.090810836924193 A38 38 0 0 1 -37.43995192304605 6.5000000000000036 L-37.43995192304605 6.5000000000000036 L-49.43995192304605 6.500000000000005 L-49.43995192304606 -6.499999999999992 L-37.43995192304606 -6.499999999999994 A38 38 0 0 1 -35.67394948182593 -13.090810836924167 L-35.67394948182593 -13.090810836924167 L-46.06625432723919 -19.090810836924163 L-39.5662543272392 -30.34914108612187 L-29.173949481825936 -24.34914108612187 A38 38 0 0 1 -24.349141086121893 -29.17394948182592 L-24.349141086121893 -29.17394948182592 L-30.349141086121897 -39.56625432723918 L-19.0908108369242 -46.06625432723918 L-13.090810836924195 -35.67394948182592 A38 38 0 0 1 -6.500000000000005 -37.43995192304605 L-6.500000000000005 -37.43995192304605 L-6.500000000000007 -49.43995192304605 L6.49999999999999 -49.43995192304606 L6.499999999999992 -37.43995192304606 A38 38 0 0 1 13.090810836924149 -35.67394948182594 L13.090810836924149 -35.67394948182594 L19.090810836924142 -46.06625432723921 L30.349141086121847 -39.56625432723922 L24.349141086121854 -29.17394948182595 A38 38 0 0 1 29.17394948182592 -24.349141086121893 L29.17394948182592 -24.349141086121893 L39.56625432723918 -30.349141086121897 L46.06625432723918 -19.0908108369242 L35.67394948182592 -13.090810836924197 A38 38 0 0 1 37.43995192304605 -6.500000000000007 M0 -20A20 20 0 1 0 0 20 A20 20 0 1 0 0 -20" fill="rgba(86.90322580645162%,86.90322580645162%,86.90322580645162%,0.835)"></path></g></g></svg>